<svg width="24" height="24" viewBox="0 0 24 24" fill="none" xmlns="http://www.w3.org/2000/svg">
<path d="M7.79998 2.3999L15.3375 9.9374L11.1375 14.1374L0.824982 3.8249L7.79998 2.3999Z" fill="#ED4C5C"/>
<path d="M3.975 2.17502C2.025 2.51252 0.599997 3.18752 0.749997 3.71252C0.937497 4.23752 2.6625 4.38752 4.65 4.05002C6.6 3.67502 8.0625 3.00002 7.875 2.47502C7.6875 1.95002 5.925 1.83752 3.975 2.17502Z" fill="#ED4C5C"/>
<path d="M4.04999 2.17508C2.21249 2.47508 0.862488 3.15008 1.04999 3.63758C1.23749 4.12508 2.84999 4.23758 4.68749 3.93758C6.52499 3.63758 7.87499 2.96258 7.68749 2.51258C7.49999 1.98758 5.88749 1.83758 4.04999 2.17508Z" fill="#FF8080"/>
<path d="M6.32062 9.88618L11.1465 5.0603L17.4574 11.3712L12.6311 16.1974L6.32062 9.88618Z" fill="#E8E8E8"/>
<path d="M16.6526 20.4664L21.69 15.4275L23.2549 16.9916L18.2175 22.0305L16.6526 20.4664Z" fill="#555B61"/>
<path d="M10.5176 14.3355L15.5539 9.2959L17.0126 10.7539L11.9764 15.7935L10.5176 14.3355Z" fill="#B2C1C0"/>
<path d="M10.9609 15.2992L16.5293 9.73047L22.9988 16.2011L17.43 21.7698L10.9609 15.2992Z" fill="#3E4347"/>
</svg>
