<svg width="37" height="38" viewBox="0 0 37 38" fill="none" xmlns="http://www.w3.org/2000/svg">
<path fill-rule="evenodd" clip-rule="evenodd" d="M18.4997 2.61902C11.998 2.61902 6.6902 7.79632 6.6902 14.2282C6.6902 17.9163 8.20911 20.7874 11.0875 23.2652C12.9391 24.8591 16.256 28.2412 17.5317 30.274C17.7373 30.6016 18.0948 30.803 18.4816 30.8092C18.8684 30.8153 19.2321 30.6254 19.448 30.3044C20.8096 28.2803 24.0813 24.8411 25.912 23.2652C28.7903 20.7874 30.3092 17.9163 30.3092 14.2282C30.3092 7.79632 25.0014 2.61902 18.4997 2.61902ZM23.0712 14.4285C23.0712 16.9533 21.0245 19 18.4997 19C15.975 19 13.9283 16.9533 13.9283 14.4285C13.9283 11.9038 15.975 9.85711 18.4997 9.85711C21.0245 9.85711 23.0712 11.9038 23.0712 14.4285Z" fill="#452CE8"/>
<path fill-rule="evenodd" clip-rule="evenodd" d="M4.89443 33.2913L7.94204 25.6722L10.7717 26.8041L8.55996 32.3334H28.4395L26.2278 26.8041L29.0574 25.6722L32.105 33.2913C32.2928 33.7608 32.2355 34.2928 31.952 34.7115C31.6685 35.1302 31.1958 35.381 30.6902 35.381H6.30925C5.80361 35.381 5.33091 35.1302 5.04743 34.7115C4.76396 34.2928 4.70664 33.7608 4.89443 33.2913Z" fill="#452CE8"/>
</svg>
