<svg width="264" height="60" viewBox="0 0 264 60" fill="none" xmlns="http://www.w3.org/2000/svg">
<path d="M60.431 43.4543C60.431 44.601 59.5027 45.5354 58.3499 45.5354C57.2032 45.5354 56.2688 44.6071 56.2688 43.4543C56.2688 42.3076 57.1971 41.3732 58.3499 41.3732C59.5027 41.3732 60.431 42.3015 60.431 43.4543Z" fill="#4027FF"/>
<path d="M43.0723 16.6306H40.615V11.5644C40.615 6.54666 36.5317 2.45727 31.5079 2.45727C26.4902 2.45727 22.4008 6.5406 22.4008 11.5644V16.6306H19.9435V11.5644C19.9435 5.18758 25.1311 0 31.5079 0C37.8847 0 43.0723 5.18758 43.0723 11.5644V16.6306Z" fill="#4027FF"/>
<path d="M47.2889 38.3153C47.1736 38.4427 47.0462 38.558 46.9248 38.6854C47.0462 38.5641 47.1675 38.4427 47.2889 38.3153Z" fill="#4027FF"/>
<path d="M45.5538 40.0263C45.2626 40.2993 44.9653 40.5602 44.668 40.8272C44.9653 40.5663 45.2626 40.2993 45.5538 40.0263Z" fill="#4027FF"/>
<path d="M48.114 37.4052C48.0109 37.5205 47.9077 37.6358 47.7985 37.751C47.9017 37.6358 48.0109 37.5266 48.114 37.4052Z" fill="#4027FF"/>
<path d="M46.4273 39.189C46.2878 39.3286 46.1422 39.462 46.0026 39.5955C46.1482 39.462 46.2878 39.3286 46.4273 39.189Z" fill="#4027FF"/>
<path d="M47.7985 37.751C47.6287 37.9391 47.459 38.1333 47.283 38.3153C47.4651 38.1333 47.6287 37.9391 47.7985 37.751Z" fill="#4027FF"/>
<path d="M46.0026 39.5955C45.8509 39.7411 45.7055 39.8867 45.5538 40.0202C45.7055 39.8867 45.857 39.7411 46.0026 39.5955Z" fill="#4027FF"/>
<path d="M48.114 37.4052C49.1758 36.1917 50.1284 34.8933 50.905 33.516C51.4632 32.5028 51.9304 31.4349 52.2095 30.3125L52.1974 30.1244C51.5846 32.7758 50.001 35.2452 48.114 37.4052Z" fill="#4027FF"/>
<path d="M51.7241 24.1117L51.3904 19.8767C51.2144 17.6135 49.3275 15.8722 47.0583 15.8722H16.2241C13.967 15.8722 12.0861 17.5953 11.8981 19.8463C11.0972 29.2932 9.15562 52.3127 9.15562 52.3127C9.15562 52.3127 12.8506 53.0832 21.9941 51.6271C28.1282 50.6502 33.9832 48.1019 39.2679 44.862C39.3346 44.8195 39.3953 44.7831 39.462 44.7406C44.3826 41.7009 49.2001 37.7632 51.4814 32.2904C51.6998 31.7686 51.8879 31.2347 52.0396 30.6947C52.0457 30.6644 52.0578 30.6341 52.0639 30.6037C52.1063 30.446 52.1488 30.2882 52.1852 30.1365C52.1913 30.1305 51.7241 24.1117 51.7241 24.1117ZM21.4905 21.5391C20.635 21.5391 19.9434 20.8474 19.9434 19.9919C19.9434 19.1364 20.635 18.4448 21.4905 18.4448C22.346 18.4448 23.0377 19.1364 23.0377 19.9919C23.0377 20.8474 22.346 21.5391 21.4905 21.5391ZM41.8404 21.5391C40.9849 21.5391 40.2932 20.8474 40.2932 19.9919C40.2932 19.1364 40.9849 18.4448 41.8404 18.4448C42.6959 18.4448 43.3876 19.1364 43.3876 19.9919C43.3876 20.8474 42.6959 21.5391 41.8404 21.5391Z" fill="#4027FF"/>
<path d="M8.92506 53.7628L8.76124 55.1279C8.44574 57.7187 10.4662 60 13.0691 60H49.9039C52.434 60 54.4241 57.8522 54.236 55.3281L53.0407 39.456C53.0711 39.8261 51.1416 42.7627 49.467 44.4009C41.0395 52.6342 29.1657 54.5212 17.5104 54.503C12.1711 54.4908 8.92506 53.7628 8.92506 53.7628Z" fill="#4027FF"/>
<path d="M59.2051 34.8751C61.3229 34.8751 63.0397 33.1583 63.0397 31.0406C63.0397 28.9228 61.3229 27.206 59.2051 27.206C57.0874 27.206 55.3706 28.9228 55.3706 31.0406C55.3706 33.1583 57.0874 34.8751 59.2051 34.8751Z" fill="#4027FF"/>
<path d="M55.3706 38.4609C55.9536 38.4609 56.4263 37.9883 56.4263 37.4052C56.4263 36.8222 55.9536 36.3495 55.3706 36.3495C54.7875 36.3495 54.3149 36.8222 54.3149 37.4052C54.3149 37.9883 54.7875 38.4609 55.3706 38.4609Z" fill="#4027FF"/>
<path d="M8.0817 48.4781C8.0817 49.0606 7.60845 49.5338 7.02599 49.5338C6.44352 49.5338 5.97027 49.0606 5.97027 48.4781C5.97027 47.8956 6.44352 47.4224 7.02599 47.4224C7.60845 47.4224 8.0817 47.8956 8.0817 48.4781Z" fill="#4027FF"/>
<path d="M5.97027 52.519C5.97027 54.1693 4.63545 55.5041 2.98513 55.5041C1.33481 55.5041 0 54.1693 0 52.519C0 50.8686 1.33481 49.5338 2.98513 49.5338C4.63545 49.5338 5.97027 50.8686 5.97027 52.519Z" fill="#4027FF"/>
<path d="M86.9986 24.0903C86.9986 17.8949 91.5895 13.8389 98.4089 13.8389C104.56 13.8389 109.151 17.8057 109.418 23.3772H103.936C103.624 20.48 101.484 18.7417 98.1861 18.7417C94.6203 18.7417 92.4363 20.48 92.4363 23.3772C92.4363 25.5611 93.5952 26.8983 96.2249 27.7451L100.949 29.216C105.585 30.6869 107.769 33.3166 107.769 37.4617C107.769 43.5234 103.089 47.5794 96.0466 47.5794C89.1826 47.5794 84.9038 44.0583 84.5472 38.0411H90.0741C90.3415 40.9383 92.5701 42.632 96.2249 42.632C99.9689 42.632 102.376 40.8046 102.376 37.952C102.376 35.9017 101.44 34.832 98.9883 34.0743L94.2192 32.6034C89.4946 31.1326 86.9986 28.1909 86.9986 24.0903ZM115.794 47H110.579L115.839 13.8389H121.054L118.825 27.968C120.742 25.4274 122.836 24.3132 125.734 24.3132C130.681 24.3132 133.89 28.3246 133.043 33.4949L130.904 47H125.689L127.65 34.7429C128.23 31.1326 126.714 29.0377 123.683 29.0377C120.474 29.0377 118.246 31.3109 117.622 35.1886L115.794 47ZM136.571 37.5509C136.571 30.1966 142.321 24.4023 149.497 24.4023C155.781 24.4023 160.016 28.4137 160.016 34.3863C160.016 41.7406 154.311 47.5349 147.09 47.5349C140.805 47.5349 136.571 43.5234 136.571 37.5509ZM141.92 37.1497C141.92 40.6263 144.015 42.8994 147.402 42.8994C151.413 42.8994 154.667 39.2891 154.667 34.7874C154.667 31.2663 152.572 28.9931 149.229 28.9931C145.218 28.9931 141.92 32.6034 141.92 37.1497ZM160.815 57.2069L165.896 24.9817H170.755L170.576 28.28C172.359 25.784 174.811 24.4023 178.064 24.4023C183.279 24.4023 187.023 28.4583 187.023 34.3417C187.023 42.0526 182.076 47.5349 175.435 47.5349C172.136 47.5349 169.239 45.9303 168.125 43.4789L166.03 57.2069H160.815ZM169.284 37.328C169.284 40.76 171.289 42.8994 174.588 42.8994C178.599 42.8994 181.764 39.2891 181.764 34.6537C181.764 31.2663 179.758 28.9931 176.549 28.9931C172.493 28.9931 169.284 32.648 169.284 37.328ZM210.76 47H187.806L188.608 41.8297L207.908 19.544H192.531L193.288 14.4183H215.663L214.905 19.3657L195.383 41.8743H211.562L210.76 47ZM224.773 47.5349C218.622 47.5349 214.789 43.7909 214.789 37.6846C214.789 30.152 220.137 24.4023 227.09 24.4023C233.598 24.4023 237.297 28.904 236.272 35.5451L236.005 37.1943L219.825 37.2389V37.3726C219.825 41.1166 221.653 43.2114 225.04 43.2114C227.536 43.2114 229.542 42.008 230.478 39.9131H235.648C234.133 44.504 229.765 47.5349 224.773 47.5349ZM226.778 28.6811C223.881 28.6811 221.43 30.776 220.405 33.8514H231.325C231.815 30.7314 229.988 28.6811 226.778 28.6811ZM243.981 47H238.766L242.242 24.9817H247.056V27.968C248.973 25.4274 251.023 24.3132 253.965 24.3132C258.912 24.3132 262.077 28.3246 261.274 33.4949L259.135 47H253.92L255.837 34.7429C256.461 31.1326 254.945 29.0377 251.87 29.0377C248.705 29.0377 246.477 31.3109 245.853 35.1886L243.981 47Z" fill="#323135"/>
</svg>
