<svg width="64" height="60" viewBox="0 0 64 60" fill="none" xmlns="http://www.w3.org/2000/svg">
<path d="M60.431 43.4543C60.431 44.601 59.5027 45.5354 58.3499 45.5354C57.2032 45.5354 56.2688 44.6071 56.2688 43.4543C56.2688 42.3076 57.1971 41.3732 58.3499 41.3732C59.5027 41.3732 60.431 42.3015 60.431 43.4543Z" fill="#4027FF"/>
<path d="M43.0723 16.6306H40.615V11.5644C40.615 6.54666 36.5317 2.45727 31.5079 2.45727C26.4902 2.45727 22.4008 6.5406 22.4008 11.5644V16.6306H19.9435V11.5644C19.9435 5.18758 25.1311 0 31.5079 0C37.8847 0 43.0723 5.18758 43.0723 11.5644V16.6306Z" fill="#4027FF"/>
<path d="M47.2889 38.3153C47.1736 38.4427 47.0462 38.558 46.9248 38.6854C47.0462 38.5641 47.1675 38.4427 47.2889 38.3153Z" fill="#4027FF"/>
<path d="M45.5538 40.0263C45.2626 40.2993 44.9653 40.5602 44.668 40.8272C44.9653 40.5663 45.2626 40.2993 45.5538 40.0263Z" fill="#4027FF"/>
<path d="M48.114 37.4052C48.0109 37.5205 47.9077 37.6358 47.7985 37.751C47.9017 37.6358 48.0109 37.5266 48.114 37.4052Z" fill="#4027FF"/>
<path d="M46.4273 39.189C46.2878 39.3286 46.1422 39.462 46.0026 39.5955C46.1482 39.462 46.2878 39.3286 46.4273 39.189Z" fill="#4027FF"/>
<path d="M47.7985 37.751C47.6287 37.9391 47.459 38.1333 47.283 38.3153C47.4651 38.1333 47.6287 37.9391 47.7985 37.751Z" fill="#4027FF"/>
<path d="M46.0026 39.5955C45.8509 39.7411 45.7055 39.8867 45.5538 40.0202C45.7055 39.8867 45.857 39.7411 46.0026 39.5955Z" fill="#4027FF"/>
<path d="M48.114 37.4052C49.1758 36.1917 50.1284 34.8933 50.905 33.516C51.4632 32.5028 51.9304 31.4349 52.2095 30.3125L52.1974 30.1244C51.5846 32.7758 50.001 35.2452 48.114 37.4052Z" fill="#4027FF"/>
<path d="M51.7241 24.1117L51.3904 19.8767C51.2144 17.6135 49.3275 15.8722 47.0583 15.8722H16.2241C13.967 15.8722 12.0861 17.5953 11.8981 19.8463C11.0972 29.2932 9.15562 52.3127 9.15562 52.3127C9.15562 52.3127 12.8506 53.0832 21.9941 51.6271C28.1282 50.6502 33.9832 48.1019 39.2679 44.862C39.3346 44.8195 39.3953 44.7831 39.462 44.7406C44.3826 41.7009 49.2001 37.7632 51.4814 32.2904C51.6998 31.7686 51.8879 31.2347 52.0396 30.6947C52.0457 30.6644 52.0578 30.6341 52.0639 30.6037C52.1063 30.446 52.1488 30.2882 52.1852 30.1365C52.1913 30.1305 51.7241 24.1117 51.7241 24.1117ZM21.4905 21.5391C20.635 21.5391 19.9434 20.8474 19.9434 19.9919C19.9434 19.1364 20.635 18.4448 21.4905 18.4448C22.346 18.4448 23.0377 19.1364 23.0377 19.9919C23.0377 20.8474 22.346 21.5391 21.4905 21.5391ZM41.8404 21.5391C40.9849 21.5391 40.2932 20.8474 40.2932 19.9919C40.2932 19.1364 40.9849 18.4448 41.8404 18.4448C42.6959 18.4448 43.3876 19.1364 43.3876 19.9919C43.3876 20.8474 42.6959 21.5391 41.8404 21.5391Z" fill="#4027FF"/>
<path d="M8.92506 53.7628L8.76124 55.1279C8.44574 57.7187 10.4662 60 13.0691 60H49.9039C52.434 60 54.4241 57.8522 54.236 55.3281L53.0407 39.456C53.0711 39.8261 51.1416 42.7627 49.467 44.4009C41.0395 52.6342 29.1657 54.5212 17.5104 54.503C12.1711 54.4908 8.92506 53.7628 8.92506 53.7628Z" fill="#4027FF"/>
<path d="M59.2051 34.8751C61.3229 34.8751 63.0397 33.1583 63.0397 31.0406C63.0397 28.9228 61.3229 27.206 59.2051 27.206C57.0874 27.206 55.3706 28.9228 55.3706 31.0406C55.3706 33.1583 57.0874 34.8751 59.2051 34.8751Z" fill="#4027FF"/>
<path d="M55.3706 38.4609C55.9536 38.4609 56.4263 37.9883 56.4263 37.4052C56.4263 36.8222 55.9536 36.3495 55.3706 36.3495C54.7875 36.3495 54.3149 36.8222 54.3149 37.4052C54.3149 37.9883 54.7875 38.4609 55.3706 38.4609Z" fill="#4027FF"/>
<path d="M8.0817 48.4781C8.0817 49.0606 7.60845 49.5338 7.02599 49.5338C6.44352 49.5338 5.97027 49.0606 5.97027 48.4781C5.97027 47.8956 6.44352 47.4224 7.02599 47.4224C7.60845 47.4224 8.0817 47.8956 8.0817 48.4781Z" fill="#4027FF"/>
<path d="M5.97027 52.519C5.97027 54.1693 4.63545 55.5041 2.98513 55.5041C1.33481 55.5041 0 54.1693 0 52.519C0 50.8686 1.33481 49.5338 2.98513 49.5338C4.63545 49.5338 5.97027 50.8686 5.97027 52.519Z" fill="#4027FF"/>
</svg>
