<svg width="25" height="24" viewBox="0 0 25 24" fill="none" xmlns="http://www.w3.org/2000/svg">
<path d="M21.465 4.61012C20.9542 4.09912 20.3478 3.69376 19.6804 3.4172C19.0129 3.14064 18.2975 2.99829 17.575 2.99829C16.8525 2.99829 16.1371 3.14064 15.4696 3.4172C14.8022 3.69376 14.1958 4.09912 13.685 4.61012L12.625 5.67012L11.565 4.61012C10.5333 3.57842 9.13403 2.99883 7.675 2.99883C6.21596 2.99883 4.81669 3.57842 3.785 4.61012C2.7533 5.64181 2.17371 7.04108 2.17371 8.50012C2.17371 9.95915 2.7533 11.3584 3.785 12.3901L4.845 13.4501L12.625 21.2301L20.405 13.4501L21.465 12.3901C21.976 11.8794 22.3813 11.2729 22.6579 10.6055C22.9345 9.93801 23.0768 9.2226 23.0768 8.50012C23.0768 7.77763 22.9345 7.06222 22.6579 6.39476C22.3813 5.7273 21.976 5.12087 21.465 4.61012Z" stroke="#938F9C" stroke-width="1.5" stroke-linecap="round" stroke-linejoin="round"/>
</svg>
