<svg width="179" height="45" viewBox="0 0 179 45" fill="none" xmlns="http://www.w3.org/2000/svg">
<path d="M2.99863 11.0903C2.99863 4.89487 7.58949 0.838869 14.4089 0.838869C20.5598 0.838869 25.1506 4.80572 25.4181 10.3772H19.9358C19.6238 7.48001 17.4843 5.74173 14.1861 5.74173C10.6203 5.74173 8.43635 7.48001 8.43635 10.3772C8.43635 12.5611 9.5952 13.8983 12.2249 14.7451L16.9495 16.216C21.5849 17.6869 23.7689 20.3166 23.7689 24.4617C23.7689 30.5234 19.0889 34.5794 12.0466 34.5794C5.18263 34.5794 0.903777 31.0583 0.547206 25.0411H6.07406C6.34149 27.9383 8.57006 29.632 12.2249 29.632C15.9689 29.632 18.3758 27.8046 18.3758 24.952C18.3758 22.9017 17.4398 21.832 14.9883 21.0743L10.2192 19.6034C5.49463 18.1326 2.99863 15.1909 2.99863 11.0903ZM31.7942 34H26.5793L31.8388 0.838869H37.0536L34.8251 14.968C36.7416 12.4274 38.8365 11.3132 41.7336 11.3132C46.6811 11.3132 49.8902 15.3246 49.0433 20.4949L46.9039 34H41.6891L43.6502 21.7429C44.2296 18.1326 42.7142 16.0377 39.6833 16.0377C36.4742 16.0377 34.2456 18.3109 33.6216 22.1886L31.7942 34ZM52.5711 24.5509C52.5711 17.1966 58.3208 11.4023 65.4968 11.4023C71.7814 11.4023 76.0157 15.4137 76.0157 21.3863C76.0157 28.7406 70.3105 34.5349 63.09 34.5349C56.8054 34.5349 52.5711 30.5234 52.5711 24.5509ZM57.9197 24.1497C57.9197 27.6263 60.0145 29.8994 63.402 29.8994C67.4134 29.8994 70.6671 26.2891 70.6671 21.7874C70.6671 18.2663 68.5722 15.9931 65.2294 15.9931C61.218 15.9931 57.9197 19.6034 57.9197 24.1497ZM76.8152 44.2069L81.8963 11.9817H86.7546L86.5763 15.28C88.3592 12.784 90.8106 11.4023 94.0643 11.4023C99.2791 11.4023 103.023 15.4583 103.023 21.3417C103.023 29.0526 98.0757 34.5349 91.4346 34.5349C88.1363 34.5349 85.2392 32.9303 84.1249 30.4789L82.03 44.2069H76.8152ZM85.2837 24.328C85.2837 27.76 87.2894 29.8994 90.5877 29.8994C94.5992 29.8994 97.7637 26.2891 97.7637 21.6537C97.7637 18.2663 95.758 15.9931 92.5489 15.9931C88.4929 15.9931 85.2837 19.648 85.2837 24.328ZM126.76 34H103.806L104.608 28.8297L123.908 6.54401H108.531L109.288 1.4183H131.663L130.905 6.36572L111.383 28.8743H127.562L126.76 34ZM140.773 34.5349C134.622 34.5349 130.789 30.7909 130.789 24.6846C130.789 17.152 136.137 11.4023 143.09 11.4023C149.598 11.4023 153.297 15.904 152.272 22.5451L152.005 24.1943L135.825 24.2389V24.3726C135.825 28.1166 137.653 30.2114 141.04 30.2114C143.536 30.2114 145.542 29.008 146.478 26.9131H151.648C150.133 31.504 145.765 34.5349 140.773 34.5349ZM142.778 15.6811C139.881 15.6811 137.43 17.776 136.405 20.8514H147.325C147.815 17.7314 145.988 15.6811 142.778 15.6811ZM159.981 34H154.766L158.242 11.9817H163.056V14.968C164.973 12.4274 167.023 11.3132 169.965 11.3132C174.912 11.3132 178.077 15.3246 177.274 20.4949L175.135 34H169.92L171.837 21.7429C172.461 18.1326 170.945 16.0377 167.87 16.0377C164.705 16.0377 162.477 18.3109 161.853 22.1886L159.981 34Z" fill="#323135"/>
</svg>
