<svg width="24" height="24" viewBox="0 0 24 24" fill="none" xmlns="http://www.w3.org/2000/svg">
<path d="M23.5397 6.32012C23.4546 6.11446 23.3103 5.93868 23.1252 5.81502C22.9402 5.69136 22.7226 5.62538 22.5 5.62543H19.8581C19.4141 4.94195 18.8079 4.37887 18.0936 3.98631C17.3794 3.59375 16.5791 3.3839 15.7641 3.37543C15.1282 3.36689 14.497 3.48567 13.9077 3.72476C13.3185 3.96385 12.783 4.31843 12.3328 4.76762C11.8699 5.22163 11.5025 5.76364 11.2521 6.36176C11.0017 6.95988 10.8735 7.60203 10.875 8.25043V8.32355C7.42219 7.23887 4.65188 4.48918 4.62188 4.45824C4.47093 4.30612 4.27967 4.20028 4.0706 4.15317C3.86154 4.10606 3.64337 4.11965 3.44176 4.19234C3.24016 4.26502 3.06351 4.39378 2.9326 4.56345C2.80169 4.73313 2.72197 4.93667 2.70282 5.15012C2.11125 11.7286 5.01375 15.2554 6.64594 16.6926C5.2875 18.0782 3.375 18.8142 3.35625 18.8217C3.19724 18.8809 3.05367 18.9753 2.9363 19.0978C2.81893 19.2203 2.7308 19.3678 2.6785 19.5292C2.6262 19.6906 2.61108 19.8618 2.63429 20.0299C2.6575 20.198 2.71842 20.3586 2.8125 20.4998C3 20.7707 4.0725 22.1254 7.5 22.1254C14.2734 22.1254 19.9406 16.9448 20.5875 10.2539L23.295 7.54637C23.4525 7.3891 23.5599 7.18865 23.6034 6.97037C23.647 6.75209 23.6248 6.52579 23.5397 6.32012ZM18.705 8.95543C18.5111 9.14852 18.3947 9.40602 18.3778 9.67918C18.0131 15.397 13.2356 19.8754 7.5 19.8754C7.10845 19.8777 6.71721 19.853 6.32907 19.8014C7.3125 19.177 8.41125 18.2882 9.1875 17.1248C9.27242 16.9974 9.33045 16.8541 9.35804 16.7035C9.38564 16.553 9.38222 16.3984 9.34799 16.2492C9.31376 16.1 9.24945 15.9593 9.15899 15.8359C9.06852 15.7124 8.95381 15.6087 8.82188 15.5311C8.81063 15.5245 7.66594 14.8289 6.62532 13.2417C5.58469 11.6545 5.00719 9.77293 4.89469 7.6373C6.50344 8.85043 9 10.387 11.8125 10.8604C11.9739 10.8877 12.1393 10.8794 12.2971 10.8362C12.455 10.793 12.6015 10.7158 12.7265 10.6102C12.8514 10.5045 12.9518 10.3728 13.0207 10.2243C13.0895 10.0758 13.1251 9.9141 13.125 9.75043V8.25043C13.1242 7.90006 13.1935 7.55307 13.329 7.22992C13.4644 6.90677 13.6631 6.614 13.9134 6.36887C14.1525 6.12971 14.437 5.94075 14.7501 5.81308C15.0632 5.68541 15.3987 5.62161 15.7369 5.62543C16.2481 5.63227 16.7469 5.78398 17.1754 6.06293C17.6038 6.34188 17.9444 6.73663 18.1575 7.20137C18.2452 7.40184 18.3895 7.57239 18.5727 7.69211C18.7558 7.81184 18.9699 7.87554 19.1888 7.87543H19.7813L18.705 8.95543Z" fill="#323135"/>
</svg>
